<svg xmlns="http://www.w3.org/2000/svg" xml:space="preserve" width="1500" height="1500" data-id="lg_02DqSmKgQl42zL6erp" data-version="1" viewBox="0 0 1500 1500"><path fill="#001a33" stroke="transparent" d="M0 0h1500v1500H0z"/><g data-padding="20"><g transform="translate(135.892 135.927)scale(.81604)"><g fill="#364b6f" opacity=".5"><path d="M1333.19 964.304c-25.545-25.635-67.42-25.708-93.054-.162-6.525 6.502-10.725 13.474-13.996 21.378l-160.985-.28c-3.24-9.778-8.343-18.627-15.774-26.084-25.546-25.635-67.42-25.708-93.055-.163s-25.708 67.42-.163 93.056a65.997 65.997 0 0 0 112.202-40.284l152.61.267c.438 16.285 6.458 32.58 18.998 45.165 25.546 25.634 67.42 25.708 93.055.162s25.708-67.42.163-93.055m-358.384 69.166c-15.327-15.38-15.284-40.506.097-55.833s40.506-15.284 55.833.097 15.284 40.506-.097 55.833-40.506 15.284-55.833-.097m283.81 5.148c-15.327-15.38-15.284-40.506.097-55.833s40.506-15.283 55.833.097 15.284 40.506-.097 55.834-40.506 15.283-55.833-.098" opacity=".5"/><path d="M1095.99 912.71c25.545 25.634 67.42 25.707 93.055.162s25.708-67.42.162-93.055-67.42-25.708-93.055-.163-25.708 67.42-.162 93.055m74.574-74.314c15.327 15.381 15.283 40.506-.098 55.833s-40.506 15.284-55.833-.097-15.283-40.506.098-55.833 40.505-15.284 55.833.097m22.8 265.248c-25.545-25.635-67.42-25.708-93.055-.162s-25.707 67.42-.162 93.055 67.42 25.708 93.055.162 25.708-67.42.163-93.055m-74.575 74.314c-15.328-15.38-15.284-40.506.097-55.833s40.506-15.283 55.833.098 15.284 40.505-.097 55.833-40.506 15.283-55.833-.098m-353.22-223.95c-25.546-25.634-67.42-25.707-93.055-.162s-25.708 67.42-.163 93.055 67.42 25.708 93.056.163 25.707-67.42.162-93.055m-74.574 74.314c-15.327-15.38-15.284-40.506.097-55.833s40.506-15.284 55.833.097 15.284 40.506-.097 55.833-40.506 15.284-55.833-.097" opacity=".5"/><path d="M1053.538 1242.982c-22.294-22.372-57.184-25.69-82.804-8.52l-52.949-53.133c17.26-25.56 14.064-60.462-8.23-82.834-14.399-14.449-33.929-20.997-53.01-18.704l-.197-153.076a65.668 65.668 0 0 0 57.406-101.796l48.473-48.304c25.56 17.26 60.462 14.064 82.834-8.23 25.635-25.546 25.708-67.42.162-93.055s-67.42-25.708-93.055-.163c-22.372 22.294-25.69 57.184-8.52 82.805l-48.472 48.304c-25.56-17.26-60.462-14.064-82.834 8.23-25.635 25.546-25.708 67.42-.162 93.055q8.36 8.39 18.124 12.594l-.293 167.5c-5.124 3.248-9.317 6.497-13.51 10.677-25.636 25.546-25.709 67.42-.164 93.056 22.294 22.372 57.184 25.69 82.805 8.52l52.948 53.133c-17.26 25.56-14.063 60.462 8.23 82.834 25.546 25.635 67.421 25.708 93.056.162s25.708-67.42.162-93.055m-82.79-549.17c15.38-15.329 40.505-15.285 55.832.096s15.283 40.506-.097 55.833-40.506 15.284-55.834-.097-15.283-40.506.098-55.833M830.92 833.151c15.38-15.329 40.505-15.285 55.833.096s15.283 40.506-.098 55.833-40.506 15.284-55.833-.097-15.283-40.506.098-55.833m4.06 339.66c-15.328-15.382-15.284-40.507.097-55.834s40.506-15.283 55.833.097 15.284 40.506-.097 55.834-40.506 15.283-55.833-.098m143.984 144.488c-15.327-15.38-15.283-40.506.098-55.833s40.505-15.283 55.833.098 15.283 40.505-.098 55.833-40.505 15.283-55.833-.098" opacity=".5"/></g><rect width="557.99" height="114.13" x="-272.862" y="437.887" fill="none" rx="0" ry="0" transform="rotate(-45 683.198 -283.7)"/><path fill="#fff" d="m562.888 887.263-11.929 11.93 45.715 45.713-4.497 4.498-45.715-45.715-11.929 11.93-4.292-4.293 28.355-28.355Zm81.558 9.871-5.19 5.19-34.91-7.77-6.173 6.172 21.34 21.34-4.497 4.498-50.007-50.007 15.868-15.867q2.546-2.546 5.742-3.818 3.19-1.266 6.533-1.273 3.352 0 6.555 1.294 3.21 1.287 5.756 3.832l4.045 4.045q2.545 2.546 3.832 5.756 1.294 3.203 1.294 6.555t-1.265 6.54q-1.28 3.19-3.826 5.735Zm-39.436-27.867-4.045-4.044q-1.676-1.676-3.748-2.49-2.079-.82-4.257-.834-2.177-.028-4.25.8-2.078.82-3.754 2.495l-11.158 11.158 20.09 20.09 11.157-11.159q1.676-1.676 2.496-3.755t.8-4.25q-.022-2.184-.835-4.256-.82-2.079-2.496-3.755m76.15-8.846-28.137 28.136-50.006-50.007 28.135-28.135 4.292 4.292-23.638 23.638 18.583 18.583 19.141-19.14 4.292 4.291-19.14 19.141 18.553 18.555 23.64-23.639Zm-41.77-58.244 50.084 27.966 1.98 1.711-1.704-1.987-27.938-50.112 4.64-4.639 35.291 64.721-2.37 2.37-64.65-35.363Zm99.356-23.893q2.545 2.545 3.818 5.741 1.273 3.197 1.273 6.534 0 3.352-1.287 6.562-1.294 3.203-3.84 5.75l-15.832 15.831-50.006-50.007 15.832-15.832q2.545-2.545 5.756-3.832t6.554-1.294q3.345.007 6.555 1.294t5.756 3.832Zm-4.505 4.504-25.42-25.42q-1.676-1.676-3.74-2.497-2.08-.82-4.279-.813-2.199-.007-4.27.82-2.072.814-3.748 2.49l-11.123 11.122 41.43 41.43 11.122-11.123q1.676-1.676 2.49-3.748.82-2.079.833-4.256.022-2.185-.79-4.257-.829-2.072-2.505-3.748m55.614-31.063-28.135 28.136-50.007-50.007 28.136-28.136 4.292 4.292-23.639 23.64 18.583 18.582 19.141-19.142 4.293 4.292-19.142 19.142 18.555 18.554 23.638-23.638Zm-41.768-58.245 50.083 27.967 1.98 1.71-1.704-1.986-27.938-50.113 4.638-4.639 35.292 64.722-2.369 2.37-64.657-35.357Zm111.828-11.815-28.347 28.348-4.285-4.285 11.921-11.922-41.43-41.43-6.9 16.943-4.293-4.293 6.902-16.942 4.497-4.497 45.722 45.722 11.928-11.93Zm22.981-46.146q2.546 2.546 3.826 5.735 1.266 3.19 1.266 6.54.007 3.345-1.273 6.534-1.273 3.196-3.819 5.742l-2.12 2.121q-2.546 2.546-5.764 3.84-3.203 1.294-6.548 1.287-3.35 0-6.54-1.266-3.19-1.28-5.735-3.826l-1.287-1.287 3.797-5.197 1.987 1.987q1.676 1.676 3.748 2.49 2.072.827 4.27.82 2.2.007 4.28-.814 2.064-.82 3.74-2.496l1.711-1.71q1.675-1.677 2.496-3.74.82-2.08.8-4.265-.015-2.178-.843-4.25-.813-2.072-2.489-3.748l-4.15-4.15q-1.676-1.676-3.748-2.49-2.072-.827-4.236-.827t-4.235.827q-2.072.814-3.748 2.49l-3.352 3.351-4.292-4.292 3.352-3.352q1.676-1.676 2.49-3.747.826-2.072.826-4.236t-.827-4.235q-.813-2.072-2.49-3.748l-2.439-2.44q-1.675-1.676-3.754-2.496-2.065-.82-4.229-.82t-4.242.82q-2.072.813-3.748 2.49l-1.71 1.71q-1.677 1.676-2.49 3.748-.82 2.08-.835 4.257-.02 2.185.8 4.25.82 2.08 2.495 3.754l2.023 2.023-5.233 3.761-1.287-1.286q-2.545-2.546-3.825-5.735-1.273-3.196-1.266-6.54-.007-3.345 1.28-6.556 1.3-3.21 3.847-5.756l2.12-2.12q2.546-2.546 5.735-3.826 3.197-1.273 6.541-1.266 3.345-.007 6.541 1.266 3.19 1.28 5.735 3.825l1.704 1.704q1.782 1.782 2.934 3.868 1.146 2.093 1.69 4.35.545 2.24.488 4.56-.05 2.326-.714 4.59 2.227-.7 4.554-.75 2.32-.057 4.56.487 2.256.545 4.35 1.69 2.085 1.153 3.867 2.935Zm36.028-36.027q2.545 2.545 3.818 5.742 1.266 3.19 1.273 6.533 0 3.352-1.28 6.541-1.266 3.19-3.81 5.735l-2.13 2.128q-2.545 2.546-5.756 3.833-3.203 1.294-6.555 1.294t-6.533-1.273q-3.196-1.273-5.742-3.819l-1.287-1.287 3.797-5.197 1.987 1.987q1.676 1.676 3.748 2.49 2.08.82 4.27.82 2.2.007 4.28-.814 2.071-.827 3.746-2.503l1.705-1.704q1.675-1.676 2.503-3.748.813-2.07.792-4.256-.014-2.178-.835-4.257-.813-2.072-2.489-3.748l-4.15-4.15q-1.676-1.676-3.748-2.49-2.079-.82-4.243-.82-2.163 0-4.228.82-2.08.82-3.755 2.496l-3.345 3.345-4.292-4.292 3.345-3.345q1.676-1.676 2.496-3.754.82-2.065.82-4.229t-.82-4.243q-.813-2.07-2.489-3.747l-2.44-2.44q-1.675-1.676-3.754-2.496-2.072-.813-4.236-.813t-4.235.813q-2.08.82-3.755 2.496l-1.704 1.704q-1.676 1.676-2.496 3.755t-.835 4.257q-.014 2.178.8 4.25.82 2.08 2.495 3.754l2.023 2.023-5.233 3.761-1.287-1.286q-2.545-2.546-3.818-5.742-1.28-3.19-1.273-6.534 0-3.352 1.287-6.562 1.294-3.203 3.84-5.749l2.128-2.128q2.546-2.546 5.727-3.818 3.197-1.273 6.548-1.273 3.338 0 6.534 1.273t5.742 3.818l1.704 1.704q1.782 1.782 2.927 3.875 1.153 2.086 1.697 4.342.538 2.248.481 4.568-.042 2.32-.714 4.59 2.234-.708 4.554-.75 2.32-.057 4.568.48 2.255.545 4.341 1.697 2.093 1.146 3.875 2.928Zm.46-72.98 28.276 67.408-4.709 4.71-26.983-64.447-17.367 17.367 6.661 6.66-4.504 4.505-10.953-10.953 27.414-27.414Z"/><g stroke="#1becf2" stroke-width="5" transform="translate(438.47 439.36)"><path d="M151.643 548.324 556.997 142.97"/>undefined
        undefined</g><g fill="#364b6f" opacity=".5"><path d="M460.446 169.043c-25.59 25.59-25.59 67.465 0 93.055 6.514 6.514 13.493 10.701 21.403 13.958v160.986c-9.77 3.257-18.612 8.375-26.056 15.82-25.59 25.59-25.59 67.464 0 93.055s67.465 25.59 93.055 0a65.997 65.997 0 0 0-40.478-112.132v-152.61c16.285-.466 32.57-6.515 45.132-19.077 25.59-25.59 25.59-67.465 0-93.055s-67.465-25.59-93.055 0m69.791 358.262c-15.354 15.355-40.479 15.355-55.833 0s-15.354-40.479 0-55.833 40.48-15.354 55.833 0 15.354 40.48 0 55.833m4.653-283.818c-15.354 15.354-40.479 15.354-55.833 0s-15.354-40.48 0-55.833 40.48-15.354 55.833 0 15.354 40.48 0 55.833" opacity=".5"/><path d="M409.265 406.334c25.59-25.59 25.59-67.465 0-93.056s-67.465-25.59-93.055 0-25.59 67.465 0 93.056 67.465 25.59 93.055 0m-74.444-74.445c15.354-15.354 40.48-15.354 55.833 0s15.354 40.48 0 55.834-40.479 15.354-55.833 0-15.354-40.48 0-55.834m265.21-23.262c-25.59 25.59-25.59 67.465 0 93.055s67.464 25.59 93.054 0 25.59-67.465 0-93.055-67.465-25.59-93.055 0m74.444 74.444c-15.354 15.354-40.48 15.354-55.833 0s-15.354-40.48 0-55.833 40.48-15.354 55.833 0 15.354 40.48 0 55.833M451.14 736.681c-25.59 25.59-25.59 67.464 0 93.054s67.465 25.59 93.056 0 25.59-67.465 0-93.055-67.466-25.59-93.056 0m74.444 74.444c-15.354 15.354-40.479 15.354-55.833 0s-15.354-40.479 0-55.833 40.48-15.354 55.833 0 15.355 40.48 0 55.833" opacity=".5"/><path d="M739.612 448.21c-22.334 22.332-25.59 57.227-8.375 82.818l-53.042 53.041c-25.59-17.215-60.486-13.958-82.82 8.375-14.423 14.424-20.937 33.965-18.61 53.042l-153.076.465a65.668 65.668 0 0 0-101.896-57.23l-48.388-48.388c17.215-25.59 13.958-60.486-8.375-82.819-25.59-25.59-67.465-25.59-93.055 0s-25.59 67.465 0 93.055c22.333 22.334 57.23 25.59 82.82 8.375l48.387 48.39c-17.215 25.59-13.958 60.485 8.375 82.82 25.59 25.59 67.465 25.59 93.056 0q8.375-8.377 12.562-18.148h167.5c3.257 5.118 6.513 9.306 10.7 13.493 25.591 25.59 67.466 25.59 93.056 0 22.333-22.333 25.59-57.229 8.375-82.819l53.042-53.04c25.59 17.214 60.486 13.957 82.82-8.376 25.59-25.59 25.59-67.465 0-93.055s-67.466-25.59-93.056 0m-549.026 83.75c-15.355-15.355-15.355-40.48 0-55.834s40.48-15.354 55.833 0 15.354 40.48 0 55.833-40.48 15.354-55.833 0m139.582 139.583c-15.354-15.354-15.354-40.479 0-55.833s40.48-15.354 55.834 0 15.354 40.48 0 55.833-40.48 15.354-55.834 0m339.652-4.653c-15.354 15.354-40.479 15.354-55.833 0s-15.354-40.479 0-55.833 40.48-15.354 55.833 0 15.354 40.48 0 55.833m144.236-144.235c-15.354 15.354-40.48 15.354-55.833 0s-15.354-40.48 0-55.833 40.48-15.355 55.833 0 15.354 40.48 0 55.833" opacity=".5"/></g><path fill="#1becf2" d="M540.92 958.362c-6.16 0-11.2 5.625-11.2 12.5 0 1.75.336 3.25.896 4.75l-19.376 21.625c-1.568-.875-3.248-1.375-5.04-1.375-6.16 0-11.2 5.625-11.2 12.5s5.04 12.5 11.2 12.5a11.234 12.538 0 0 0 8.624-20.5l18.368-20.5c2.016 2.125 4.704 3.5 7.728 3.5 6.16 0 11.2-5.625 11.2-12.5s-5.04-12.5-11.2-12.5m-34.72 57.5c-3.696 0-6.72-3.375-6.72-7.5s3.024-7.5 6.72-7.5 6.72 3.375 6.72 7.5-3.024 7.5-6.72 7.5m34.72-37.5c-3.696 0-6.72-3.375-6.72-7.5s3.024-7.5 6.72-7.5 6.72 3.375 6.72 7.5-3.024 7.5-6.72 7.5"/><path fill="#1becf2" d="M506.2 983.362c6.16 0 11.2-5.625 11.2-12.5s-5.04-12.5-11.2-12.5-11.2 5.625-11.2 12.5 5.04 12.5 11.2 12.5m0-20c3.696 0 6.72 3.375 6.72 7.5s-3.024 7.5-6.72 7.5-6.72-3.375-6.72-7.5 3.024-7.5 6.72-7.5m34.72 32.5c-6.16 0-11.2 5.625-11.2 12.5s5.04 12.5 11.2 12.5 11.2-5.625 11.2-12.5-5.04-12.5-11.2-12.5m0 20c-3.696 0-6.72-3.375-6.72-7.5s3.024-7.5 6.72-7.5 6.72 3.375 6.72 7.5-3.024 7.5-6.72 7.5m-69.44 17.5c-6.16 0-11.2 5.625-11.2 12.5s5.04 12.5 11.2 12.5 11.2-5.625 11.2-12.5-5.04-12.5-11.2-12.5m0 20c-3.696 0-6.72-3.375-6.72-7.5s3.024-7.5 6.72-7.5 6.72 3.375 6.72 7.5-3.024 7.5-6.72 7.5"/><path fill="#1becf2" d="M540.92 1033.362c-5.376 0-9.968 4.25-10.976 10h-12.768c-1.008-5.75-5.6-10-10.976-10-3.472 0-6.608 1.75-8.624 4.625l-18.48-20.5a11.178 12.475 0 0 0-5.376-21.375v-13c5.152-1.125 8.96-6.25 8.96-12.25 0-6.875-5.04-12.5-11.2-12.5s-11.2 5.625-11.2 12.5c0 6 3.808 11.125 8.96 12.25v13c-5.152 1.125-8.96 6.25-8.96 12.25 0 6.875 5.04 12.5 11.2 12.5q2.016 0 3.696-.75l20.16 22.5a16 16 0 0 0-.336 3.25c0 6.875 5.04 12.5 11.2 12.5 5.376 0 9.968-4.25 10.976-10h12.768c1.008 5.75 5.6 10 10.976 10 6.16 0 11.2-5.625 11.2-12.5s-5.04-12.5-11.2-12.5m-76.16-62.5c0-4.125 3.024-7.5 6.72-7.5s6.72 3.375 6.72 7.5-3.024 7.5-6.72 7.5-6.72-3.375-6.72-7.5m0 37.5c0-4.125 3.024-7.5 6.72-7.5s6.72 3.375 6.72 7.5-3.024 7.5-6.72 7.5-6.72-3.375-6.72-7.5m41.44 45c-3.696 0-6.72-3.375-6.72-7.5s3.024-7.5 6.72-7.5 6.72 3.375 6.72 7.5-3.024 7.5-6.72 7.5m34.72 0c-3.696 0-6.72-3.375-6.72-7.5s3.024-7.5 6.72-7.5 6.72 3.375 6.72 7.5-3.024 7.5-6.72 7.5m426.41-503.43c6.16 0 11.2-5.625 11.2-12.5 0-1.75-.336-3.25-.896-4.75l19.376-21.625c1.568.875 3.248 1.375 5.04 1.375 6.16 0 11.2-5.625 11.2-12.5s-5.04-12.5-11.2-12.5a11.234 12.538 0 0 0-8.624 20.5l-18.368 20.5c-2.016-2.125-4.704-3.5-7.728-3.5-6.16 0-11.2 5.625-11.2 12.5s5.04 12.5 11.2 12.5m34.72-57.5c3.696 0 6.72 3.375 6.72 7.5s-3.024 7.5-6.72 7.5-6.72-3.375-6.72-7.5 3.024-7.5 6.72-7.5m-34.72 37.5c3.696 0 6.72 3.375 6.72 7.5s-3.024 7.5-6.72 7.5-6.72-3.375-6.72-7.5 3.024-7.5 6.72-7.5"/><path fill="#1becf2" d="M1002.05 524.932c-6.16 0-11.2 5.625-11.2 12.5s5.04 12.5 11.2 12.5 11.2-5.625 11.2-12.5-5.04-12.5-11.2-12.5m0 20c-3.696 0-6.72-3.375-6.72-7.5s3.024-7.5 6.72-7.5 6.72 3.375 6.72 7.5-3.024 7.5-6.72 7.5m-34.72-32.5c6.16 0 11.2-5.625 11.2-12.5s-5.04-12.5-11.2-12.5-11.2 5.625-11.2 12.5 5.04 12.5 11.2 12.5m0-20c3.696 0 6.72 3.375 6.72 7.5s-3.024 7.5-6.72 7.5-6.72-3.375-6.72-7.5 3.024-7.5 6.72-7.5m69.44-17.5c6.16 0 11.2-5.625 11.2-12.5s-5.04-12.5-11.2-12.5-11.2 5.625-11.2 12.5 5.04 12.5 11.2 12.5m0-20c3.696 0 6.72 3.375 6.72 7.5s-3.024 7.5-6.72 7.5-6.72-3.375-6.72-7.5 3.024-7.5 6.72-7.5"/><path fill="#1becf2" d="M967.33 474.932c5.376 0 9.968-4.25 10.976-10h12.768c1.008 5.75 5.6 10 10.976 10 3.472 0 6.608-1.75 8.624-4.625l18.48 20.5a11.178 12.475 0 0 0 5.376 21.375v13c-5.152 1.125-8.96 6.25-8.96 12.25 0 6.875 5.04 12.5 11.2 12.5s11.2-5.625 11.2-12.5c0-6-3.808-11.125-8.96-12.25v-13c5.152-1.125 8.96-6.25 8.96-12.25 0-6.875-5.04-12.5-11.2-12.5q-2.016 0-3.696.75l-20.16-22.5c.224-1.125.336-2.125.336-3.25 0-6.875-5.04-12.5-11.2-12.5-5.376 0-9.968 4.25-10.976 10h-12.768c-1.008-5.75-5.6-10-10.976-10-6.16 0-11.2 5.625-11.2 12.5s5.04 12.5 11.2 12.5m76.16 62.5c0 4.125-3.024 7.5-6.72 7.5s-6.72-3.375-6.72-7.5 3.024-7.5 6.72-7.5 6.72 3.375 6.72 7.5m0-37.5c0 4.125-3.024 7.5-6.72 7.5s-6.72-3.375-6.72-7.5 3.024-7.5 6.72-7.5 6.72 3.375 6.72 7.5m-41.44-45c3.696 0 6.72 3.375 6.72 7.5s-3.024 7.5-6.72 7.5-6.72-3.375-6.72-7.5 3.024-7.5 6.72-7.5m-34.72 0c3.696 0 6.72 3.375 6.72 7.5s-3.024 7.5-6.72 7.5-6.72-3.375-6.72-7.5 3.024-7.5 6.72-7.5"/></g><path fill="transparent" stroke="transparent" stroke-width=".83" d="M252.075 250h995.85v1000h-995.85z"/></g></svg>